<svg xmlns="http://www.w3.org/2000/svg" viewBox="0 0 4.71 4.71"><defs><style>.cls-1{fill:#fff;fill-rule:evenodd;}</style></defs><g id="Layer_2" data-name="Layer 2"><g id="Layer_1-2" data-name="Layer 1"><g id="Component_13_1" data-name="Component 13 1"><path id="Path_3" data-name="Path 3" class="cls-1" d="M2.36.42a7.44,7.44,0,0,1,.94,0,1.11,1.11,0,0,1,.44.08A1,1,0,0,1,4.19,1a1.12,1.12,0,0,1,.07.45c0,.23,0,.31,0,.94a7.44,7.44,0,0,1,0,.94,1.1,1.1,0,0,1-.07.44,1,1,0,0,1-.45.45,1.1,1.1,0,0,1-.44.07c-.24,0-.32,0-.94,0a7.32,7.32,0,0,1-.94,0A1.12,1.12,0,0,1,1,4.19a1,1,0,0,1-.44-.45A1.11,1.11,0,0,1,.45,3.3c0-.24,0-.32,0-.94a7.32,7.32,0,0,1,0-.94A1.12,1.12,0,0,1,.53,1,.76.76,0,0,1,.71.71.4.4,0,0,1,1,.53,1.12,1.12,0,0,1,1.42.45a7.32,7.32,0,0,1,.94,0m0-.42a7.8,7.8,0,0,0-1,0A1.56,1.56,0,0,0,.82.14,1,1,0,0,0,.4.4,1,1,0,0,0,.14.82,1.1,1.1,0,0,0,0,1.39a7.8,7.8,0,0,0,0,1,7.7,7.7,0,0,0,0,1,1.66,1.66,0,0,0,.11.58,1,1,0,0,0,.26.42,1,1,0,0,0,.42.26,1.56,1.56,0,0,0,.57.1,7.8,7.8,0,0,0,1,0,7.7,7.7,0,0,0,1,0,1.65,1.65,0,0,0,.58-.1,1.09,1.09,0,0,0,.68-.68,1.65,1.65,0,0,0,.1-.58c0-.26,0-.34,0-1a7.8,7.8,0,0,0,0-1,1.65,1.65,0,0,0-.1-.58A1,1,0,0,0,4.32.4,1,1,0,0,0,3.9.14,1.66,1.66,0,0,0,3.32,0a7.7,7.7,0,0,0-1,0m0,1.15A1.19,1.19,0,0,0,1.15,2.32v0A1.21,1.21,0,1,0,2.36,1.15h0m0,2a.77.77,0,0,1-.79-.75v0a.77.77,0,0,1,.76-.79h0a.77.77,0,0,1,.78.76v0a.77.77,0,0,1-.75.78h0M3.61.82a.28.28,0,0,0-.29.28.29.29,0,0,0,.58,0h0A.28.28,0,0,0,3.61.82"/></g></g></g></svg>