<svg xmlns="http://www.w3.org/2000/svg" viewBox="0 0 18.01 8.42"><defs><style>.cls-1,.cls-2{fill:#fff;}.cls-2{font-size:0.81px;font-family:LEMONMILK-Regular, LEMON MILK;}</style></defs><g id="Layer_2" data-name="Layer 2"><g id="Layer_1-2" data-name="Layer 1"><circle class="cls-1" cx="2.43" cy="3.1" r="2.42"/><circle class="cls-1" cx="4.85" cy="0.68" r="0.68"/><path class="cls-1" d="M2.43,6H4.85A2.44,2.44,0,0,1,2.43,8.42,2.45,2.45,0,0,1,0,6Z"/><path class="cls-1" d="M8.28,3.2A1.09,1.09,0,0,1,7.15,4.34a1.22,1.22,0,1,1,0-2.44A1.28,1.28,0,0,1,8,2.26l-.21.31a.94.94,0,0,0-.66-.3.85.85,0,1,0,0,1.7.64.64,0,0,0,.71-.61H7.15V3H8.27C8.27,3.06,8.28,3.13,8.28,3.2Z"/><path class="cls-1" d="M9.93,4.3l-.64-.91H9V4.3H8.63V1.94h.74a.78.78,0,0,1,.8.76.69.69,0,0,1-.47.66l.69.94ZM9.37,3.08a.41.41,0,0,0,.41-.39.4.4,0,0,0-.41-.39H9v.78Z"/><path class="cls-1" d="M12.13,3.94H11l-.17.36h-.4l1.11-2.41h0L12.69,4.3h-.4ZM12,3.62l-.41-.92-.42.92Z"/><path class="cls-1" d="M14.86,1.93V4.34h0L13.33,2.76V4.3H13V1.89h0l1.51,1.58V1.93Z"/><path class="cls-1" d="M16.8,2.3h-.63v2h-.38v-2h-.63V1.94H16.8Z"/><path class="cls-1" d="M8.28,6.21A1.09,1.09,0,0,1,7.15,7.35a1.22,1.22,0,1,1,0-2.44A1.28,1.28,0,0,1,8,5.27l-.21.31a1,1,0,0,0-.66-.3.85.85,0,1,0,0,1.7.64.64,0,0,0,.71-.61H7.15V6H8.27C8.27,6.08,8.28,6.14,8.28,6.21Z"/><path class="cls-1" d="M9.93,7.31,9.29,6.4H9v.91H8.63V5h.74a.78.78,0,0,1,.8.76.69.69,0,0,1-.47.66l.69.94ZM9.37,6.09a.41.41,0,0,0,.41-.39.39.39,0,0,0-.41-.38H9v.77Z"/><path class="cls-1" d="M12.13,7H11l-.17.36h-.4L11.55,4.9h0l1.11,2.41h-.4ZM12,6.64l-.41-.93-.42.93Z"/><path class="cls-1" d="M12.75,6.9,13,6.69a.6.6,0,0,0,.53.29c.27,0,.47-.13.47-.31s-.31-.35-.59-.47-.59-.27-.59-.64a.71.71,0,0,1,.77-.66.68.68,0,0,1,.68.43L14,5.52a.45.45,0,0,0-.41-.25c-.22,0-.39.13-.39.3s.22.25.5.38.67.34.67.71-.36.69-.84.69A.87.87,0,0,1,12.75,6.9Z"/><text class="cls-2" transform="translate(16.79 1.68)">TM</text></g></g></svg>