<svg xmlns="http://www.w3.org/2000/svg" viewBox="0 0 4.7 4.7"><defs><style>.cls-1{fill:none;}.cls-2{fill:#fff;fill-rule:evenodd;}</style></defs><g id="Layer_2" data-name="Layer 2"><g id="Layer_1-2" data-name="Layer 1"><g id="Component_12_1" data-name="Component 12 1"><rect id="Rectangle_393" data-name="Rectangle 393" class="cls-1" width="4.7" height="4.7"/><path id="Path_2" data-name="Path 2" class="cls-2" d="M1.49,4.4A2.71,2.71,0,0,0,4.23,1.71V1.53A2,2,0,0,0,4.7,1a2.05,2.05,0,0,1-.55.16A1,1,0,0,0,4.57.67,2.57,2.57,0,0,1,4,.9a.93.93,0,0,0-.7-.31,1,1,0,0,0-1,1,.36.36,0,0,0,0,.21,2.68,2.68,0,0,1-2-1,1,1,0,0,0-.13.5,1,1,0,0,0,.42.81.9.9,0,0,1-.45-.13h0A1,1,0,0,0,1,2.86l-.26,0a.58.58,0,0,1-.19,0,1,1,0,0,0,.92.68A2,2,0,0,1,.24,4a1,1,0,0,1-.24,0,2.42,2.42,0,0,0,1.49.47"/></g></g></g></svg>